<?xml version="1.0" encoding="utf-8"?>
<svg version="1.1" id="Layer_1" xmlns="http://www.w3.org/2000/svg" xmlns:xlink="http://www.w3.org/1999/xlink" x="0px" y="0px"
	 viewBox="0 0 500 100" style="enable-background:new 0 0 500 100;" xml:space="preserve">

<path id="path32556" class="st0" d="M0,0v1.85V3.7v1.85v1.85v1.85v1.85v1.85v1.85v1.85v1.85v1.85v1.85v1.85v1.85v1.85v1.85v1.85
	v1.85v1.85v1.85v1.85v1.85v1.85v1.85v1.85v1.85V50v1.85v1.85v1.85v1.85v1.85v1.85v1.85v1.85v1.85v1.85v1.85v1.85v1.85v1.85v1.85
	v1.85v1.85v1.85v1.85v1.85v1.85v1.85v1.85v1.85v1.85v1.85V100h2.08h2.08h2.08h2.08h2.08h2.08h2.08h2.08h2.08h2.08h2.08H25h2.08h2.08
	h2.08h2.08v-1.85V96.3v-1.85v-1.85v-1.85v-1.85v-1.85v-1.85v-1.85v-1.85v-1.85v-1.85v-1.85v-1.85v-1.85v-1.85v-1.85v-1.85v-1.85
	v-1.85v-1.85v-1.85v-1.85v-1.85V53.7v-1.85V50v-1.85V46.3v-1.85v-1.85v-1.85v-1.85v-1.85v-1.85v-1.85v-1.85v-1.85v-1.85v-1.85v-1.85
	v-1.85v-1.85v-1.85v-1.85v-1.85v-1.85v-1.85V9.26V7.41V5.56V3.7V1.85V0h-2.08h-2.08h-2.08H25h-2.08h-2.08h-2.08h-2.08h-2.08H12.5
	h-2.08H8.33H6.25H4.17H2.08H0z"/>
<path id="path32554" class="st0" d="M37.5,0v1.85V3.7v1.85v1.85v1.85v1.85v1.85v1.85v1.85v1.85v1.85v1.85v1.85v1.85v1.85v1.85v1.85
	v1.85v1.85v1.85v1.85v1.85v1.85v1.85v1.85v1.85V50v1.85v1.85v1.85v1.85v1.85v1.85v1.85v1.85v1.85v1.85v1.85v1.85v1.85v1.85v1.85
	v1.85v1.85v1.85v1.85v1.85v1.85v1.85v1.85v1.85v1.85v1.85V100h2.08h2.08v-1.85V96.3v-1.85v-1.85v-1.85v-1.85v-1.85v-1.85v-1.85
	v-1.85v-1.85v-1.85v-1.85v-1.85v-1.85v-1.85v-1.85v-1.85v-1.85v-1.85v-1.85v-1.85v-1.85v-1.85V53.7v-1.85V50v-1.85V46.3v-1.85v-1.85
	v-1.85v-1.85v-1.85v-1.85v-1.85v-1.85v-1.85v-1.85v-1.85v-1.85v-1.85v-1.85v-1.85v-1.85v-1.85v-1.85v-1.85V9.26V7.41V5.56V3.7V1.85
	V0h-2.08H37.5z"/>
<path id="path32552" class="st0" d="M45.83,0v1.85V3.7v1.85v1.85v1.85v1.85v1.85v1.85v1.85v1.85v1.85v1.85v1.85v1.85v1.85v1.85v1.85
	v1.85v1.85v1.85v1.85v1.85v1.85v1.85v1.85v1.85V50v1.85v1.85v1.85v1.85v1.85v1.85v1.85v1.85v1.85v1.85v1.85v1.85v1.85v1.85v1.85
	v1.85v1.85v1.85v1.85v1.85v1.85v1.85v1.85v1.85v1.85v1.85V100h2.08H50v-1.85V96.3v-1.85v-1.85v-1.85v-1.85v-1.85v-1.85v-1.85v-1.85
	v-1.85v-1.85v-1.85v-1.85v-1.85v-1.85v-1.85v-1.85v-1.85v-1.85v-1.85v-1.85v-1.85v-1.85V53.7v-1.85V50v-1.85V46.3v-1.85v-1.85v-1.85
	v-1.85v-1.85v-1.85v-1.85v-1.85v-1.85v-1.85v-1.85v-1.85v-1.85v-1.85v-1.85v-1.85v-1.85v-1.85v-1.85V9.26V7.41V5.56V3.7V1.85V0
	h-2.08H45.83z"/>
<path id="path32550" class="st0" d="M54.17,0v1.85V3.7v1.85v1.85v1.85v1.85v1.85v1.85v1.85v1.85v1.85v1.85v1.85v1.85v1.85v1.85v1.85
	v1.85v1.85v1.85v1.85v1.85v1.85v1.85v1.85v1.85V50v1.85v1.85v1.85v1.85v1.85v1.85v1.85v1.85v1.85v1.85v1.85v1.85v1.85v1.85v1.85
	v1.85v1.85v1.85v1.85v1.85v1.85v1.85v1.85v1.85v1.85v1.85V100h2.08h2.08v-1.85V96.3v-1.85v-1.85v-1.85v-1.85v-1.85v-1.85v-1.85
	v-1.85v-1.85v-1.85v-1.85v-1.85v-1.85v-1.85v-1.85v-1.85v-1.85v-1.85v-1.85v-1.85v-1.85v-1.85V53.7v-1.85V50v-1.85V46.3v-1.85v-1.85
	v-1.85v-1.85v-1.85v-1.85v-1.85v-1.85v-1.85v-1.85v-1.85v-1.85v-1.85v-1.85v-1.85v-1.85v-1.85v-1.85v-1.85V9.26V7.41V5.56V3.7V1.85
	V0h-2.08H54.17z"/>
<path id="path32548" class="st0" d="M70.83,0v1.85V3.7v1.85v1.85v1.85v1.85v1.85v1.85v1.85v1.85v1.85v1.85v1.85v1.85v1.85v1.85v1.85
	v1.85v1.85v1.85v1.85v1.85v1.85v1.85v1.85v1.85V50v1.85v1.85v1.85v1.85v1.85v1.85v1.85v1.85v1.85v1.85v1.85v1.85v1.85v1.85v1.85
	v1.85v1.85v1.85v1.85v1.85v1.85v1.85v1.85v1.85v1.85v1.85V100h2.08H75h2.08h2.08h2.08h2.08h2.08h2.08h2.08h2.08h2.08h2.08v-1.85
	V96.3v-1.85v-1.85v-1.85v-1.85v-1.85v-1.85v-1.85v-1.85v-1.85v-1.85h-2.08h-2.08v-1.85v-1.85v-1.85v-1.85v-1.85v-1.85v-1.85v-1.85
	v-1.85v-1.85v-1.85v-1.85h-2.08H87.5V53.7v-1.85V50v-1.85V46.3v-1.85v-1.85v-1.85v-1.85v-1.85v-1.85v-1.85h-2.08h-2.08v1.85v1.85
	v1.85v1.85v1.85v1.85v1.85v1.85V50v1.85v1.85v1.85h-2.08h-2.08V53.7v-1.85V50v-1.85V46.3v-1.85v-1.85v-1.85v-1.85v-1.85v-1.85v-1.85
	h-2.08H75v-1.85v-1.85v-1.85v-1.85v-1.85v-1.85h2.08h2.08v1.85v1.85v1.85v1.85v1.85v1.85h2.08h2.08v-1.85v-1.85v-1.85v-1.85v-1.85
	v-1.85h2.08h2.08v-1.85v-1.85v-1.85v-1.85v-1.85v-1.85h2.08h2.08V9.26V7.41V5.56V3.7V1.85V0h-2.08H87.5h-2.08h-2.08h-2.08h-2.08
	h-2.08H75h-2.08H70.83z M83.33,66.67h2.08h2.08v1.85v1.85v1.85v1.85v1.85v1.85h-2.08h-2.08v-1.85v-1.85v-1.85v-1.85v-1.85V66.67z"/>
<path id="path32546" class="st0" d="M91.67,11.11v1.85v1.85v1.85v1.85v1.85v1.85h2.08h2.08v-1.85v-1.85v-1.85v-1.85v-1.85v-1.85
	h-2.08H91.67z"/>
<path id="path32544" class="st0" d="M95.83,11.11h2.08H100V9.26V7.41V5.56V3.7V1.85V0h-2.08h-2.08v1.85V3.7v1.85v1.85v1.85V11.11z"
	/>
<path id="path32542" class="st0" d="M100,11.11v1.85v1.85v1.85v1.85v1.85v1.85v1.85v1.85v1.85v1.85v1.85v1.85h-2.08h-2.08h-2.08
	h-2.08v1.85v1.85v1.85v1.85v1.85v1.85v1.85v1.85V50v1.85v1.85v1.85h2.08h2.08v1.85v1.85v1.85v1.85v1.85v1.85h2.08H100v-1.85v-1.85
	v-1.85v-1.85v-1.85v-1.85h2.08h2.08V53.7v-1.85V50v-1.85V46.3v-1.85h2.08h2.08v-1.85v-1.85v-1.85v-1.85v-1.85v-1.85h2.08h2.08h2.08
	h2.08v-1.85v-1.85v-1.85v-1.85v-1.85v-1.85h-2.08h-2.08h-2.08h-2.08h-2.08h-2.08v-1.85v-1.85v-1.85v-1.85v-1.85v-1.85h-2.08H100z"/>
<path id="path32540" class="st0" d="M104.17,11.11h2.08h2.08V9.26V7.41V5.56V3.7V1.85V0h-2.08h-2.08v1.85V3.7v1.85v1.85v1.85V11.11z
	"/>
<path id="path32538" class="st0" d="M116.67,33.33v1.85v1.85v1.85v1.85v1.85v1.85h2.08h2.08h2.08H125v1.85v1.85V50v1.85v1.85v1.85
	v1.85v1.85v1.85v1.85v1.85v1.85h-2.08h-2.08v-1.85v-1.85v-1.85v-1.85v-1.85v-1.85h-2.08h-2.08h-2.08h-2.08h-2.08h-2.08h-2.08h-2.08
	v1.85v1.85v1.85v1.85v1.85v1.85h-2.08H100v1.85v1.85v1.85v1.85v1.85v1.85v1.85v1.85v1.85v1.85v1.85v1.85v1.85v1.85v1.85v1.85v1.85
	V100h2.08h2.08v-1.85V96.3v-1.85v-1.85v-1.85v-1.85v-1.85v-1.85v-1.85v-1.85v-1.85v-1.85h2.08h2.08h2.08h2.08v-1.85v-1.85v-1.85
	v-1.85v-1.85v-1.85h2.08h2.08v1.85v1.85v1.85v1.85v1.85v1.85h2.08h2.08v1.85v1.85v1.85v1.85v1.85v1.85h2.08H125h2.08h2.08v1.85v1.85
	v1.85v1.85v1.85V100h2.08h2.08v-1.85V96.3v-1.85v-1.85v-1.85v-1.85v-1.85v-1.85v-1.85v-1.85v-1.85v-1.85h2.08h2.08v-1.85v-1.85
	v-1.85v-1.85v-1.85v-1.85h-2.08h-2.08v-1.85v-1.85v-1.85v-1.85v-1.85v-1.85h-2.08h-2.08V53.7v-1.85V50v-1.85V46.3v-1.85h2.08h2.08
	h2.08h2.08v-1.85v-1.85v-1.85v-1.85v-1.85v-1.85h-2.08h-2.08h-2.08h-2.08h-2.08H125h-2.08h-2.08h-2.08H116.67z"/>
<path id="path32536" class="st0" d="M120.83,88.89h-2.08h-2.08v-1.85v-1.85v-1.85v-1.85v-1.85v-1.85h-2.08h-2.08v1.85v1.85v1.85
	v1.85v1.85v1.85v1.85v1.85v1.85v1.85v1.85V100h2.08h2.08h2.08h2.08v-1.85V96.3v-1.85v-1.85v-1.85V88.89z"/>
<path id="path32534" class="st0" d="M91.67,33.33v-1.85v-1.85v-1.85v-1.85v-1.85v-1.85h-2.08H87.5v1.85v1.85v1.85v1.85v1.85v1.85
	h2.08H91.67z"/>
<path id="path32532" class="st0" d="M112.5,0v1.85V3.7v1.85v1.85v1.85v1.85h2.08h2.08h2.08h2.08v1.85v1.85v1.85v1.85v1.85v1.85h2.08
	H125v-1.85v-1.85v-1.85v-1.85v-1.85v-1.85h2.08h2.08h2.08h2.08V9.26V7.41V5.56V3.7V1.85V0h-2.08h-2.08h-2.08H125h-2.08h-2.08h-2.08
	h-2.08h-2.08H112.5z"/>
<path id="path32530" class="st0" d="M141.67,0v1.85V3.7v1.85v1.85v1.85v1.85v1.85v1.85v1.85v1.85v1.85v1.85v1.85v1.85v1.85v1.85
	v1.85v1.85v1.85v1.85v1.85v1.85v1.85v1.85v1.85v1.85V50v1.85v1.85v1.85v1.85v1.85v1.85v1.85v1.85v1.85v1.85v1.85v1.85v1.85v1.85
	v1.85v1.85v1.85v1.85v1.85v1.85v1.85v1.85v1.85v1.85v1.85v1.85V100h2.08h2.08v-1.85V96.3v-1.85v-1.85v-1.85v-1.85v-1.85v-1.85v-1.85
	v-1.85v-1.85v-1.85v-1.85v-1.85v-1.85v-1.85v-1.85v-1.85v-1.85v-1.85v-1.85v-1.85v-1.85v-1.85h2.08H150h2.08h2.08V53.7v-1.85V50
	v-1.85V46.3v-1.85h-2.08H150h-2.08h-2.08v-1.85v-1.85v-1.85v-1.85v-1.85v-1.85h2.08H150h2.08h2.08v-1.85v-1.85v-1.85v-1.85v-1.85
	v-1.85h-2.08H150v-1.85v-1.85v-1.85v-1.85v-1.85v-1.85V9.26V7.41V5.56V3.7V1.85V0h-2.08h-2.08h-2.08H141.67z"/>
<path id="path32528" class="st0" d="M154.17,55.56v1.85v1.85v1.85v1.85v1.85v1.85h2.08h2.08h2.08h2.08v-1.85v-1.85v-1.85v-1.85
	v-1.85v-1.85V53.7v-1.85V50v-1.85V46.3v-1.85h2.08h2.08v-1.85v-1.85v-1.85v-1.85v-1.85v-1.85h-2.08h-2.08h-2.08h-2.08v1.85v1.85
	v1.85v1.85v1.85v1.85v1.85v1.85V50v1.85v1.85v1.85h-2.08H154.17z"/>
<path id="path32526" class="st0" d="M166.67,33.33h2.08h2.08h2.08H175h2.08h2.08h2.08h2.08v1.85v1.85v1.85v1.85v1.85v1.85h2.08h2.08
	h2.08h2.08v-1.85v-1.85v-1.85v-1.85v-1.85v-1.85h-2.08h-2.08v-1.85v-1.85v-1.85v-1.85v-1.85v-1.85h-2.08h-2.08v-1.85v-1.85v-1.85
	v-1.85v-1.85v-1.85h-2.08h-2.08h-2.08H175h-2.08h-2.08V9.26V7.41V5.56V3.7V1.85V0h-2.08h-2.08h-2.08h-2.08v1.85V3.7v1.85v1.85v1.85
	v1.85h2.08h2.08v1.85v1.85v1.85v1.85v1.85v1.85v1.85v1.85v1.85v1.85v1.85V33.33z"/>
<path id="path32524" class="st0" d="M162.5,11.11h-2.08h-2.08v1.85v1.85v1.85v1.85v1.85v1.85h2.08h2.08v-1.85v-1.85v-1.85v-1.85
	v-1.85V11.11z"/>
<path id="path32522" class="st0" d="M158.33,11.11V9.26V7.41V5.56V3.7V1.85V0h-2.08h-2.08v1.85V3.7v1.85v1.85v1.85v1.85h2.08H158.33
	z"/>
<path id="path32520" class="st0" d="M183.33,11.11h2.08h2.08h2.08h2.08h2.08h2.08V9.26V7.41V5.56V3.7V1.85V0h-2.08h-2.08h-2.08
	h-2.08h-2.08h-2.08v1.85V3.7v1.85v1.85v1.85V11.11z"/>
<path id="path32518" class="st0" d="M191.67,33.33h2.08h2.08v-1.85v-1.85v-1.85v-1.85v-1.85v-1.85h-2.08h-2.08v1.85v1.85v1.85v1.85
	v1.85V33.33z"/>
<path id="path32516" class="st0" d="M191.67,44.44v1.85v1.85V50v1.85v1.85v1.85h2.08h2.08V53.7v-1.85V50v-1.85V46.3v-1.85h-2.08
	H191.67z"/>
<path id="path32514" class="st0" d="M195.83,55.56v1.85v1.85v1.85v1.85v1.85v1.85h2.08H200v1.85v1.85v1.85v1.85v1.85v1.85v1.85v1.85
	v1.85v1.85v1.85v1.85h2.08h2.08h2.08h2.08v-1.85v-1.85v-1.85v-1.85v-1.85v-1.85h-2.08h-2.08v-1.85v-1.85v-1.85v-1.85v-1.85v-1.85
	h2.08h2.08v-1.85v-1.85v-1.85v-1.85v-1.85v-1.85h-2.08h-2.08h-2.08H200h-2.08H195.83z"/>
<path id="path32512" class="st0" d="M183.33,44.44h-2.08h-2.08h-2.08H175v1.85v1.85V50v1.85v1.85v1.85h2.08h2.08v1.85v1.85v1.85
	v1.85v1.85v1.85h2.08h2.08v-1.85v-1.85v-1.85v-1.85v-1.85v-1.85V53.7v-1.85V50v-1.85V46.3V44.44z"/>
<path id="path32510" class="st0" d="M183.33,66.67v1.85v1.85v1.85v1.85v1.85v1.85h-2.08h-2.08h-2.08H175h-2.08h-2.08v1.85v1.85v1.85
	v1.85v1.85v1.85h2.08H175h2.08h2.08v1.85v1.85v1.85v1.85v1.85V100h2.08h2.08h2.08h2.08h2.08h2.08v-1.85V96.3v-1.85v-1.85v-1.85
	v-1.85v-1.85v-1.85v-1.85v-1.85v-1.85v-1.85v-1.85v-1.85v-1.85v-1.85v-1.85v-1.85h-2.08h-2.08h-2.08H183.33z"/>
<path id="path32508" class="st0" d="M170.83,77.78v-1.85v-1.85v-1.85v-1.85v-1.85v-1.85h-2.08h-2.08h-2.08h-2.08v1.85v1.85v1.85
	v1.85v1.85v1.85v1.85v1.85v1.85v1.85v1.85v1.85v1.85v1.85v1.85v1.85v1.85V100h2.08h2.08v-1.85V96.3v-1.85v-1.85v-1.85v-1.85v-1.85
	v-1.85v-1.85v-1.85v-1.85v-1.85h2.08H170.83z"/>
<path id="path32506" class="st0" d="M212.5,0v1.85V3.7v1.85v1.85v1.85v1.85v1.85v1.85v1.85v1.85v1.85v1.85v1.85v1.85v1.85v1.85v1.85
	v1.85v1.85v1.85v1.85v1.85v1.85v1.85v1.85v1.85V50v1.85v1.85v1.85v1.85v1.85v1.85v1.85v1.85v1.85v1.85v1.85v1.85v1.85v1.85v1.85
	v1.85v1.85v1.85v1.85v1.85v1.85v1.85v1.85v1.85v1.85v1.85V100h2.08h2.08h2.08h2.08v-1.85V96.3v-1.85v-1.85v-1.85v-1.85v-1.85v-1.85
	v-1.85v-1.85v-1.85v-1.85h-2.08h-2.08v-1.85v-1.85v-1.85v-1.85v-1.85v-1.85h2.08h2.08v-1.85v-1.85v-1.85v-1.85v-1.85v-1.85h2.08H225
	V53.7v-1.85V50v-1.85V46.3v-1.85v-1.85v-1.85v-1.85v-1.85v-1.85v-1.85h-2.08h-2.08v-1.85v-1.85v-1.85v-1.85v-1.85v-1.85h2.08H225
	h2.08h2.08v1.85v1.85v1.85v1.85v1.85v1.85v1.85v1.85v1.85v1.85v1.85v1.85v1.85v1.85V50v1.85v1.85v1.85h2.08h2.08V53.7v-1.85V50
	v-1.85V46.3v-1.85h2.08h2.08h2.08h2.08v-1.85v-1.85v-1.85v-1.85v-1.85v-1.85h2.08h2.08h2.08H250v-1.85v-1.85v-1.85v-1.85v-1.85
	v-1.85h-2.08h-2.08v-1.85v-1.85v-1.85v-1.85v-1.85v-1.85h-2.08h-2.08v1.85v1.85v1.85v1.85v1.85v1.85h-2.08h-2.08v-1.85v-1.85v-1.85
	v-1.85v-1.85v-1.85h2.08h2.08V9.26V7.41V5.56V3.7V1.85V0h-2.08h-2.08h-2.08h-2.08h-2.08h-2.08v1.85V3.7v1.85v1.85v1.85v1.85h-2.08
	H225h-2.08h-2.08V9.26V7.41V5.56V3.7V1.85V0h-2.08h-2.08h-2.08H212.5z"/>
<path id="path32504" class="st0" d="M245.83,11.11h2.08H250h2.08h2.08h2.08h2.08V9.26V7.41V5.56V3.7V1.85V0h-2.08h-2.08h-2.08H250
	h-2.08h-2.08v1.85V3.7v1.85v1.85v1.85V11.11z"/>
<path id="path32502" class="st0" d="M258.33,11.11v1.85v1.85v1.85v1.85v1.85v1.85h2.08h2.08v-1.85v-1.85v-1.85v-1.85v-1.85v-1.85
	h-2.08H258.33z"/>
<path id="path32500" class="st0" d="M262.5,22.22v1.85v1.85v1.85v1.85v1.85v1.85h2.08h2.08v-1.85v-1.85v-1.85v-1.85v-1.85v-1.85
	h-2.08H262.5z"/>
<path id="path32498" class="st0" d="M266.67,22.22h2.08h2.08h2.08H275h2.08h2.08v-1.85v-1.85v-1.85v-1.85v-1.85v-1.85h-2.08H275
	V9.26V7.41V5.56V3.7V1.85V0h-2.08h-2.08h-2.08h-2.08v1.85V3.7v1.85v1.85v1.85v1.85v1.85v1.85v1.85v1.85v1.85V22.22z"/>
<path id="path32496" class="st0" d="M266.67,33.33v1.85v1.85v1.85v1.85v1.85v1.85h2.08h2.08h2.08H275v-1.85v-1.85v-1.85v-1.85v-1.85
	v-1.85h-2.08h-2.08h-2.08H266.67z"/>
<path id="path32494" class="st0" d="M266.67,44.44h-2.08h-2.08v1.85v1.85V50v1.85v1.85v1.85h-2.08h-2.08v1.85v1.85v1.85v1.85v1.85
	v1.85h2.08h2.08h2.08h2.08v1.85v1.85v1.85v1.85v1.85v1.85v1.85v1.85v1.85v1.85v1.85v1.85h-2.08h-2.08v1.85v1.85v1.85v1.85v1.85V100
	h2.08h2.08h2.08h2.08h2.08H275h2.08h2.08v-1.85V96.3v-1.85v-1.85v-1.85v-1.85h-2.08H275v-1.85v-1.85v-1.85v-1.85v-1.85v-1.85h-2.08
	h-2.08v-1.85v-1.85v-1.85v-1.85v-1.85v-1.85h2.08H275h2.08h2.08v-1.85v-1.85v-1.85v-1.85v-1.85v-1.85h-2.08H275h-2.08h-2.08h-2.08
	h-2.08V53.7v-1.85V50v-1.85V46.3V44.44z"/>
<path id="path32492" class="st0" d="M258.33,22.22h-2.08h-2.08v1.85v1.85v1.85v1.85v1.85v1.85h-2.08H250v1.85v1.85v1.85v1.85v1.85
	v1.85h2.08h2.08h2.08h2.08v-1.85v-1.85v-1.85v-1.85v-1.85v-1.85v-1.85v-1.85v-1.85v-1.85v-1.85V22.22z"/>
<path id="path32490" class="st0" d="M250,44.44h-2.08h-2.08h-2.08h-2.08v1.85v1.85V50v1.85v1.85v1.85h2.08h2.08h2.08H250V53.7v-1.85
	V50v-1.85V46.3V44.44z"/>
<path id="path32488" class="st0" d="M250,55.56v1.85v1.85v1.85v1.85v1.85v1.85h2.08h2.08v-1.85v-1.85v-1.85v-1.85v-1.85v-1.85h-2.08
	H250z"/>
<path id="path32486" class="st0" d="M229.17,55.56h-2.08H225v1.85v1.85v1.85v1.85v1.85v1.85h2.08h2.08v-1.85v-1.85v-1.85v-1.85
	v-1.85V55.56z"/>
<path id="path32484" class="st0" d="M225,66.67h-2.08h-2.08v1.85v1.85v1.85v1.85v1.85v1.85h2.08H225v-1.85v-1.85v-1.85v-1.85v-1.85
	V66.67z"/>
<path id="path32482" class="st0" d="M225,77.78v1.85v1.85v1.85v1.85v1.85v1.85h2.08h2.08v-1.85v-1.85v-1.85v-1.85v-1.85v-1.85h-2.08
	H225z"/>
<path id="path32480" class="st0" d="M283.33,0v1.85V3.7v1.85v1.85v1.85v1.85v1.85v1.85v1.85v1.85v1.85v1.85v1.85v1.85v1.85v1.85
	v1.85v1.85v1.85v1.85v1.85v1.85v1.85v1.85v1.85v1.85V50v1.85v1.85v1.85v1.85v1.85v1.85v1.85v1.85v1.85v1.85v1.85v1.85v1.85v1.85
	v1.85v1.85v1.85v1.85v1.85v1.85v1.85v1.85v1.85v1.85v1.85v1.85V100h2.08h2.08v-1.85V96.3v-1.85v-1.85v-1.85v-1.85v-1.85v-1.85v-1.85
	v-1.85v-1.85v-1.85h2.08h2.08v-1.85v-1.85v-1.85v-1.85v-1.85v-1.85v-1.85v-1.85v-1.85v-1.85v-1.85v-1.85h2.08h2.08v1.85v1.85v1.85
	v1.85v1.85v1.85v1.85v1.85v1.85v1.85v1.85v1.85h-2.08h-2.08v1.85v1.85v1.85v1.85v1.85v1.85v1.85v1.85v1.85v1.85v1.85V100h2.08h2.08
	v-1.85V96.3v-1.85v-1.85v-1.85v-1.85h2.08H300h2.08h2.08v1.85v1.85v1.85v1.85v1.85V100h2.08h2.08h2.08h2.08h2.08h2.08v-1.85V96.3
	v-1.85v-1.85v-1.85v-1.85h-2.08h-2.08v-1.85v-1.85v-1.85v-1.85v-1.85v-1.85v-1.85v-1.85v-1.85v-1.85v-1.85v-1.85h-2.08h-2.08v1.85
	v1.85v1.85v1.85v1.85v1.85h-2.08h-2.08h-2.08H300v-1.85v-1.85v-1.85v-1.85v-1.85v-1.85h2.08h2.08v-1.85v-1.85v-1.85v-1.85v-1.85
	v-1.85h2.08h2.08V53.7v-1.85V50v-1.85V46.3v-1.85h-2.08h-2.08v-1.85v-1.85v-1.85v-1.85v-1.85v-1.85h-2.08H300v1.85v1.85v1.85v1.85
	v1.85v1.85h-2.08h-2.08h-2.08h-2.08v-1.85v-1.85v-1.85v-1.85v-1.85v-1.85h2.08h2.08h2.08H300v-1.85v-1.85v-1.85v-1.85v-1.85v-1.85
	h-2.08h-2.08h-2.08h-2.08v-1.85v-1.85v-1.85v-1.85v-1.85v-1.85h2.08h2.08V9.26V7.41V5.56V3.7V1.85V0h-2.08h-2.08h-2.08h-2.08h-2.08
	H283.33z"/>
<path id="path32478" class="st0" d="M300,22.22h2.08h2.08v-1.85v-1.85v-1.85v-1.85v-1.85v-1.85h-2.08H300v1.85v1.85v1.85v1.85v1.85
	V22.22z"/>
<path id="path32476" class="st0" d="M304.17,11.11h2.08h2.08V9.26V7.41V5.56V3.7V1.85V0h-2.08h-2.08v1.85V3.7v1.85v1.85v1.85V11.11z
	"/>
<path id="path32474" class="st0" d="M308.33,11.11v1.85v1.85v1.85v1.85v1.85v1.85v1.85v1.85v1.85v1.85v1.85v1.85v1.85v1.85v1.85
	v1.85v1.85v1.85h2.08h2.08v-1.85v-1.85v-1.85v-1.85v-1.85v-1.85v-1.85v-1.85v-1.85v-1.85v-1.85v-1.85h2.08h2.08h2.08h2.08v-1.85
	v-1.85v-1.85v-1.85v-1.85v-1.85h-2.08h-2.08h-2.08h-2.08h-2.08H308.33z"/>
<path id="path32472" class="st0" d="M320.83,11.11h2.08H325V9.26V7.41V5.56V3.7V1.85V0h-2.08h-2.08v1.85V3.7v1.85v1.85v1.85V11.11z"
	/>
<path id="path32470" class="st0" d="M320.83,22.22v1.85v1.85v1.85v1.85v1.85v1.85v1.85v1.85v1.85v1.85v1.85v1.85h2.08H325v1.85v1.85
	V50v1.85v1.85v1.85h2.08h2.08V53.7v-1.85V50v-1.85V46.3v-1.85v-1.85v-1.85v-1.85v-1.85v-1.85v-1.85h2.08h2.08h2.08h2.08v-1.85v-1.85
	v-1.85v-1.85v-1.85v-1.85v-1.85v-1.85v-1.85v-1.85v-1.85v-1.85h2.08h2.08h2.08h2.08V9.26V7.41V5.56V3.7V1.85V0h-2.08h-2.08h-2.08
	h-2.08h-2.08h-2.08v1.85V3.7v1.85v1.85v1.85v1.85v1.85v1.85v1.85v1.85v1.85v1.85h-2.08h-2.08h-2.08H325h-2.08H320.83z"/>
<path id="path32468" class="st0" d="M329.17,55.56v1.85v1.85v1.85v1.85v1.85v1.85h2.08h2.08h2.08h2.08h2.08h2.08h2.08h2.08h2.08H350
	v-1.85v-1.85v-1.85v-1.85v-1.85v-1.85V53.7v-1.85V50v-1.85V46.3v-1.85h-2.08h-2.08h-2.08h-2.08h-2.08h-2.08v1.85v1.85V50v1.85v1.85
	v1.85h-2.08h-2.08h-2.08H329.17z"/>
<path id="path32466" class="st0" d="M329.17,66.67h-2.08H325h-2.08h-2.08v1.85v1.85v1.85v1.85v1.85v1.85h-2.08h-2.08v1.85v1.85v1.85
	v1.85v1.85v1.85h2.08h2.08v1.85v1.85v1.85v1.85v1.85V100h2.08H325h2.08h2.08h2.08h2.08h2.08h2.08h2.08h2.08h2.08h2.08v-1.85V96.3
	v-1.85v-1.85v-1.85v-1.85v-1.85v-1.85v-1.85v-1.85v-1.85v-1.85h-2.08h-2.08h-2.08h-2.08h-2.08h-2.08h-2.08h-2.08v1.85v1.85v1.85
	v1.85v1.85v1.85h-2.08H325v-1.85v-1.85v-1.85v-1.85v-1.85v-1.85h2.08h2.08v-1.85v-1.85v-1.85v-1.85v-1.85V66.67z"/>
<path id="path32464" class="st0" d="M320.83,66.67v-1.85v-1.85v-1.85v-1.85v-1.85v-1.85h-2.08h-2.08V53.7v-1.85V50v-1.85V46.3v-1.85
	h-2.08h-2.08v1.85v1.85V50v1.85v1.85v1.85v1.85v1.85v1.85v1.85v1.85v1.85h2.08h2.08h2.08H320.83z"/>
<path id="path32462" class="st0" d="M354.17,0v1.85V3.7v1.85v1.85v1.85v1.85v1.85v1.85v1.85v1.85v1.85v1.85v1.85v1.85v1.85v1.85
	v1.85v1.85v1.85v1.85v1.85v1.85v1.85v1.85v1.85v1.85V50v1.85v1.85v1.85v1.85v1.85v1.85v1.85v1.85v1.85v1.85v1.85v1.85v1.85v1.85
	v1.85v1.85v1.85v1.85v1.85v1.85v1.85v1.85v1.85v1.85v1.85v1.85V100h2.08h2.08h2.08h2.08h2.08h2.08h2.08h2.08h2.08H375v-1.85V96.3
	v-1.85v-1.85v-1.85v-1.85h2.08h2.08v1.85v1.85v1.85v1.85v1.85V100h2.08h2.08v-1.85V96.3v-1.85v-1.85v-1.85v-1.85h2.08h2.08h2.08
	h2.08v1.85v1.85v1.85v1.85v1.85V100h2.08h2.08h2.08H400h2.08h2.08v-1.85V96.3v-1.85v-1.85v-1.85v-1.85h2.08h2.08v1.85v1.85v1.85
	v1.85v1.85V100h2.08h2.08v-1.85V96.3v-1.85v-1.85v-1.85v-1.85v-1.85v-1.85v-1.85v-1.85v-1.85v-1.85h2.08h2.08h2.08h2.08v-1.85v-1.85
	v-1.85v-1.85v-1.85v-1.85h-2.08h-2.08v-1.85v-1.85v-1.85v-1.85v-1.85v-1.85V53.7v-1.85V50v-1.85V46.3v-1.85h2.08h2.08v-1.85v-1.85
	v-1.85v-1.85v-1.85v-1.85h-2.08h-2.08h-2.08h-2.08h-2.08h-2.08v-1.85v-1.85v-1.85v-1.85v-1.85v-1.85h-2.08h-2.08h-2.08H400v-1.85
	v-1.85v-1.85v-1.85v-1.85v-1.85h2.08h2.08h2.08h2.08h2.08h2.08h2.08h2.08V9.26V7.41V5.56V3.7V1.85V0h-2.08h-2.08h-2.08h-2.08h-2.08
	h-2.08h-2.08H400h-2.08h-2.08v1.85V3.7v1.85v1.85v1.85v1.85v1.85v1.85v1.85v1.85v1.85v1.85h-2.08h-2.08v1.85v1.85v1.85v1.85v1.85
	v1.85h2.08h2.08h2.08H400v1.85v1.85v1.85v1.85v1.85v1.85h2.08h2.08v1.85v1.85V50v1.85v1.85v1.85h2.08h2.08v1.85v1.85v1.85v1.85v1.85
	v1.85h-2.08h-2.08v-1.85v-1.85v-1.85v-1.85v-1.85v-1.85h-2.08H400h-2.08h-2.08V53.7v-1.85V50v-1.85V46.3v-1.85h-2.08h-2.08v-1.85
	v-1.85v-1.85v-1.85v-1.85v-1.85h-2.08h-2.08h-2.08h-2.08h-2.08h-2.08h-2.08H375v1.85v1.85v1.85v1.85v1.85v1.85v1.85v1.85V50v1.85
	v1.85v1.85v1.85v1.85v1.85v1.85v1.85v1.85h2.08h2.08v-1.85v-1.85v-1.85v-1.85v-1.85v-1.85V53.7v-1.85V50v-1.85V46.3v-1.85h2.08h2.08
	v1.85v1.85V50v1.85v1.85v1.85v1.85v1.85v1.85v1.85v1.85v1.85v1.85v1.85v1.85v1.85v1.85v1.85h-2.08h-2.08h-2.08H375v-1.85v-1.85
	v-1.85v-1.85v-1.85v-1.85h-2.08h-2.08v1.85v1.85v1.85v1.85v1.85v1.85v1.85v1.85v1.85v1.85v1.85v1.85h-2.08h-2.08v-1.85v-1.85v-1.85
	v-1.85v-1.85v-1.85v-1.85v-1.85v-1.85v-1.85v-1.85v-1.85h2.08h2.08v-1.85v-1.85v-1.85v-1.85v-1.85v-1.85V53.7v-1.85V50v-1.85V46.3
	v-1.85v-1.85v-1.85v-1.85v-1.85v-1.85v-1.85h-2.08h-2.08v1.85v1.85v1.85v1.85v1.85v1.85h-2.08h-2.08v-1.85v-1.85v-1.85v-1.85v-1.85
	v-1.85h-2.08h-2.08v-1.85v-1.85v-1.85v-1.85v-1.85v-1.85h2.08h2.08v1.85v1.85v1.85v1.85v1.85v1.85h2.08h2.08v-1.85v-1.85v-1.85
	v-1.85v-1.85v-1.85h2.08h2.08v-1.85v-1.85v-1.85v-1.85v-1.85v-1.85h2.08H375V9.26V7.41V5.56V3.7V1.85V0h-2.08h-2.08h-2.08h-2.08
	h-2.08h-2.08h-2.08h-2.08h-2.08H354.17z M395.83,66.67h2.08H400v1.85v1.85v1.85v1.85v1.85v1.85v1.85v1.85v1.85v1.85v1.85v1.85h-2.08
	h-2.08v-1.85v-1.85v-1.85v-1.85v-1.85v-1.85v-1.85v-1.85v-1.85v-1.85v-1.85V66.67z M358.33,77.78h2.08h2.08v1.85v1.85v1.85v1.85
	v1.85v1.85h-2.08h-2.08v-1.85v-1.85v-1.85v-1.85v-1.85V77.78z"/>
<path id="path32460" class="st0" d="M375,11.11v1.85v1.85v1.85v1.85v1.85v1.85h2.08h2.08v-1.85v-1.85v-1.85v-1.85v-1.85v-1.85h-2.08
	H375z"/>
<path id="path32458" class="st0" d="M379.17,11.11h2.08h2.08V9.26V7.41V5.56V3.7V1.85V0h-2.08h-2.08v1.85V3.7v1.85v1.85v1.85V11.11z
	"/>
<path id="path32456" class="st0" d="M383.33,11.11v1.85v1.85v1.85v1.85v1.85v1.85h2.08h2.08v-1.85v-1.85v-1.85v-1.85v-1.85v-1.85
	h-2.08H383.33z"/>
<path id="path32454" class="st0" d="M387.5,11.11h2.08h2.08V9.26V7.41V5.56V3.7V1.85V0h-2.08h-2.08v1.85V3.7v1.85v1.85v1.85V11.11z"
	/>
<path id="path32452" class="st0" d="M375,22.22h-2.08h-2.08v1.85v1.85v1.85v1.85v1.85v1.85h2.08H375v-1.85v-1.85v-1.85v-1.85v-1.85
	V22.22z"/>
<path id="path32450" class="st0" d="M425,0v1.85V3.7v1.85v1.85v1.85v1.85v1.85v1.85v1.85v1.85v1.85v1.85v1.85v1.85v1.85v1.85v1.85
	v1.85v1.85v1.85v1.85v1.85v1.85v1.85v1.85v1.85V50v1.85v1.85v1.85v1.85v1.85v1.85v1.85v1.85v1.85v1.85v1.85v1.85v1.85v1.85v1.85
	v1.85v1.85v1.85v1.85v1.85v1.85v1.85v1.85v1.85v1.85v1.85V100h2.08h2.08h2.08h2.08h2.08h2.08h2.08h2.08h2.08h2.08h2.08H450h2.08
	h2.08v-1.85V96.3v-1.85v-1.85v-1.85v-1.85v-1.85v-1.85v-1.85v-1.85v-1.85v-1.85v-1.85v-1.85v-1.85v-1.85v-1.85v-1.85v-1.85v-1.85
	v-1.85v-1.85v-1.85v-1.85V53.7v-1.85V50v-1.85V46.3v-1.85v-1.85v-1.85v-1.85v-1.85v-1.85v-1.85v-1.85v-1.85v-1.85v-1.85v-1.85v-1.85
	v-1.85v-1.85v-1.85v-1.85v-1.85v-1.85V9.26V7.41V5.56V3.7V1.85V0h-2.08H450h-2.08h-2.08h-2.08h-2.08h-2.08h-2.08h-2.08h-2.08h-2.08
	h-2.08h-2.08H425z"/>
<path id="path32448" class="st0" d="M458.33,0v1.85V3.7v1.85v1.85v1.85v1.85v1.85v1.85v1.85v1.85v1.85v1.85v1.85v1.85v1.85v1.85
	v1.85v1.85v1.85v1.85v1.85v1.85v1.85v1.85v1.85v1.85V50v1.85v1.85v1.85v1.85v1.85v1.85v1.85v1.85v1.85v1.85v1.85v1.85v1.85v1.85
	v1.85v1.85v1.85v1.85v1.85v1.85v1.85v1.85v1.85v1.85v1.85v1.85V100h2.08h2.08v-1.85V96.3v-1.85v-1.85v-1.85v-1.85v-1.85v-1.85v-1.85
	v-1.85v-1.85v-1.85v-1.85v-1.85v-1.85v-1.85v-1.85v-1.85v-1.85v-1.85v-1.85v-1.85v-1.85v-1.85V53.7v-1.85V50v-1.85V46.3v-1.85v-1.85
	v-1.85v-1.85v-1.85v-1.85v-1.85v-1.85v-1.85v-1.85v-1.85v-1.85v-1.85v-1.85v-1.85v-1.85v-1.85v-1.85v-1.85V9.26V7.41V5.56V3.7V1.85
	V0h-2.08H458.33z"/>
<path id="path32446" class="st0" d="M475,0v1.85V3.7v1.85v1.85v1.85v1.85v1.85v1.85v1.85v1.85v1.85v1.85v1.85v1.85v1.85v1.85v1.85
	v1.85v1.85v1.85v1.85v1.85v1.85v1.85v1.85v1.85V50v1.85v1.85v1.85v1.85v1.85v1.85v1.85v1.85v1.85v1.85v1.85v1.85v1.85v1.85v1.85
	v1.85v1.85v1.85v1.85v1.85v1.85v1.85v1.85v1.85v1.85v1.85V100h2.08h2.08v-1.85V96.3v-1.85v-1.85v-1.85v-1.85v-1.85v-1.85v-1.85
	v-1.85v-1.85v-1.85v-1.85v-1.85v-1.85v-1.85v-1.85v-1.85v-1.85v-1.85v-1.85v-1.85v-1.85v-1.85V53.7v-1.85V50v-1.85V46.3v-1.85v-1.85
	v-1.85v-1.85v-1.85v-1.85v-1.85v-1.85v-1.85v-1.85v-1.85v-1.85v-1.85v-1.85v-1.85v-1.85v-1.85v-1.85v-1.85V9.26V7.41V5.56V3.7V1.85
	V0h-2.08H475z"/>
<path id="path32444" class="st0" d="M483.33,0v1.85V3.7v1.85v1.85v1.85v1.85v1.85v1.85v1.85v1.85v1.85v1.85v1.85v1.85v1.85v1.85
	v1.85v1.85v1.85v1.85v1.85v1.85v1.85v1.85v1.85v1.85V50v1.85v1.85v1.85v1.85v1.85v1.85v1.85v1.85v1.85v1.85v1.85v1.85v1.85v1.85
	v1.85v1.85v1.85v1.85v1.85v1.85v1.85v1.85v1.85v1.85v1.85v1.85V100h2.08h2.08v-1.85V96.3v-1.85v-1.85v-1.85v-1.85v-1.85v-1.85v-1.85
	v-1.85v-1.85v-1.85v-1.85v-1.85v-1.85v-1.85v-1.85v-1.85v-1.85v-1.85v-1.85v-1.85v-1.85v-1.85V53.7v-1.85V50v-1.85V46.3v-1.85v-1.85
	v-1.85v-1.85v-1.85v-1.85v-1.85v-1.85v-1.85v-1.85v-1.85v-1.85v-1.85v-1.85v-1.85v-1.85v-1.85v-1.85v-1.85V9.26V7.41V5.56V3.7V1.85
	V0h-2.08H483.33z"/>
<path id="path32442" class="st0" d="M495.83,0v1.85V3.7v1.85v1.85v1.85v1.85v1.85v1.85v1.85v1.85v1.85v1.85v1.85v1.85v1.85v1.85
	v1.85v1.85v1.85v1.85v1.85v1.85v1.85v1.85v1.85v1.85V50v1.85v1.85v1.85v1.85v1.85v1.85v1.85v1.85v1.85v1.85v1.85v1.85v1.85v1.85
	v1.85v1.85v1.85v1.85v1.85v1.85v1.85v1.85v1.85v1.85v1.85v1.85V100h2.08H500v-1.85V96.3v-1.85v-1.85v-1.85v-1.85v-1.85v-1.85v-1.85
	v-1.85v-1.85v-1.85v-1.85v-1.85v-1.85v-1.85v-1.85v-1.85v-1.85v-1.85v-1.85v-1.85v-1.85v-1.85V53.7v-1.85V50v-1.85V46.3v-1.85v-1.85
	v-1.85v-1.85v-1.85v-1.85v-1.85v-1.85v-1.85v-1.85v-1.85v-1.85v-1.85v-1.85v-1.85v-1.85v-1.85v-1.85v-1.85V9.26V7.41V5.56V3.7V1.85
	V0h-2.08H495.83z"/>
<path id="path32440" class="st0" d="M200,11.11v1.85v1.85v1.85v1.85v1.85v1.85v1.85v1.85v1.85v1.85v1.85v1.85v1.85v1.85v1.85v1.85
	v1.85v1.85h2.08h2.08v-1.85v-1.85v-1.85v-1.85v-1.85v-1.85h2.08h2.08v-1.85v-1.85v-1.85v-1.85v-1.85v-1.85v-1.85v-1.85v-1.85v-1.85
	v-1.85v-1.85h-2.08h-2.08h-2.08H200z"/>
<path id="path32438" class="st0" d="M345.83,22.22v1.85v1.85v1.85v1.85v1.85v1.85h2.08H350v-1.85v-1.85v-1.85v-1.85v-1.85v-1.85
	h-2.08H345.83z"/>
<path id="path32434" class="st0" d="M241.67,66.67v1.85v1.85v1.85v1.85v1.85v1.85h-2.08h-2.08h-2.08h-2.08v1.85v1.85v1.85v1.85v1.85
	v1.85h2.08h2.08v1.85v1.85v1.85v1.85v1.85V100h2.08h2.08h2.08h2.08v-1.85V96.3v-1.85v-1.85v-1.85v-1.85h2.08H250v-1.85v-1.85v-1.85
	v-1.85v-1.85v-1.85h-2.08h-2.08v-1.85v-1.85v-1.85v-1.85v-1.85v-1.85h-2.08H241.67z"/>
<path id="path32432" class="st0" d="M250,88.89v1.85v1.85v1.85v1.85v1.85V100h2.08h2.08v-1.85V96.3v-1.85v-1.85v-1.85v-1.85h-2.08
	H250z"/>
<path id="rect17727" class="st0" d="M150,88.89v1.85v1.85v1.85v1.85v1.85V100h2.08h2.08h2.08h2.08v-1.85V96.3v-1.85v-1.85v-1.85
	v-1.85h-2.08h-2.08h-2.08H150z"/>
</svg>
