<?xml version="1.0" encoding="utf-8"?>
<!-- Generator: Adobe Illustrator 25.2.1, SVG Export Plug-In . SVG Version: 6.00 Build 0)  -->
<svg version="1.1" id="Layer_1" xmlns="http://www.w3.org/2000/svg" xmlns:xlink="http://www.w3.org/1999/xlink" x="0px" y="0px"
	 viewBox="0 0 400 512" style="enable-background:new 0 0 400 512;" xml:space="preserve">
<path d="M339.55,300.69c-24.87-0.28-49.85,0.33-74.72,1.85c-41.38,2.61-65.88,4.25-106.91,9.81c-12.82,1.74-22.57-14.64-30-37.33
	l140.75-8.61c13.28-0.81,23.38-12.24,22.57-25.51l-0.91-14.87c-0.81-13.28-12.24-23.38-25.51-22.57l-150.98,9.24
	c-3.74-22.72-6.08-42.63-7.6-50.93c-6.84-37.36,6.05-68.46,0.46-106.13c-5.32-35.91-34.67-44.61-39.01-44.61
	c-10.32,0.11-20.63-0.11-30.95,0.11c-6.62,0.22-12.81,2.28-16.07,8.47c-3.26,6.08-6.74,12.49-8.04,19.22
	C6,72.16,8.06,105.83,15.55,138.51c16.83,72.66,35.51,144.77,53.43,217.1c3.98,15.83,7.89,31.73,11.84,47.89
	c1.41,5.74,6.56,9.78,12.47,9.78h40.52c5.38,0,9.74,4.36,9.74,9.74v34.92c0,6.49-5.23,11.75-11.72,11.78
	c-5.79,0.02-14.33,0.04-27.01,0.04c-2.61,0-5.21,0-7.71,0.33c-6.74,0.87-12.71,6.95-13.47,13.14c-0.87,6.73,3.04,13.68,9.45,16.07
	c3.15,1.2,6.73,1.63,10.1,1.63c79.5,0.11,158.89,0,238.28,0c2.93,0,5.97-0.33,8.69-1.09c10.32-2.94,14.34-14.99,7.93-23.57
	c-4.24-5.64-10.1-6.62-16.51-6.62h-56.61c-5.81,0-10.52-4.71-10.52-10.52v-36.98c0-4.96,4.02-8.97,8.97-8.97
	c16.44,0.01,52.16,0.03,80.43,0.11c3.48,0,5.32-0.87,6.41-4.24c5.32-15.86,11.62-31.5,16.07-47.68
	C389.38,350.18,391.58,301.26,339.55,300.69z"/>
</svg>
